<?xml version="1.0" encoding="UTF-8" standalone="no"?>
<svg
   xmlns:dc="http://purl.org/dc/elements/1.1/"
   xmlns:cc="http://creativecommons.org/ns#"
   xmlns:rdf="http://www.w3.org/1999/02/22-rdf-syntax-ns#"
   xmlns:svg="http://www.w3.org/2000/svg"
   xmlns="http://www.w3.org/2000/svg"
   xmlns:sodipodi="http://sodipodi.sourceforge.net/DTD/sodipodi-0.dtd"
   xmlns:inkscape="http://www.inkscape.org/namespaces/inkscape"
   width="210mm"
   height="297mm"
   viewBox="0 0 210 297"
   version="1.1"
   id="svg2863"
   inkscape:version="1.0.2 (e86c870879, 2021-01-15)"
   sodipodi:docname="du_logo.svg">
  <defs
     id="defs2857" />
  <sodipodi:namedview
     id="base"
     pagecolor="#ffffff"
     bordercolor="#666666"
     borderopacity="1.0"
     inkscape:pageopacity="0.0"
     inkscape:pageshadow="2"
     inkscape:zoom="0.175"
     inkscape:cx="317.98145"
     inkscape:cy="1295.7359"
     inkscape:document-units="mm"
     inkscape:current-layer="layer1"
     inkscape:document-rotation="0"
     showgrid="false"
     inkscape:window-width="1233"
     inkscape:window-height="1348"
     inkscape:window-x="1295"
     inkscape:window-y="60"
     inkscape:window-maximized="0" />
  <metadata
     id="metadata2860">
    <rdf:RDF>
      <cc:Work
         rdf:about="">
        <dc:format>image/svg+xml</dc:format>
        <dc:type
           rdf:resource="http://purl.org/dc/dcmitype/StillImage" />
        <dc:title></dc:title>
      </cc:Work>
    </rdf:RDF>
  </metadata>
  <g
     inkscape:label="Layer 1"
     inkscape:groupmode="layer"
     id="layer1">
    <g
       id="g926"
       transform="matrix(0.11588222,0,0,0.11588222,371.97359,22.662665)"
       inkscape:export-filename="/tmp/logo.png"
       inkscape:export-xdpi="39.988575"
       inkscape:export-ydpi="39.988575">
      <path
         id="path968-7-2"
         style="fill:#8eb7c1;fill-opacity:1;stroke:#000000;stroke-width:0;stroke-linecap:butt;stroke-linejoin:miter;stroke-miterlimit:4;stroke-dasharray:none;stroke-opacity:1"
         d="m -2742.738,157.19153 c 0,0 -180.9042,188.5898 -177.0787,246.8984 1.2675,19.31987 6.292,32.46178 12.9994,44.10593 3.343,5.80359 11.2952,15.27088 18.8362,20.13929 9.0609,5.84965 13.4695,5.36305 21.2022,8.08636 19.8926,7.00574 36.038,15.59959 47.0226,37.90053 9.1767,18.63074 17.438,29.48614 35.0883,41.70196 10.853,7.51122 11.714,33.86645 2.9603,55.67984 0,0 -13.9239,21.55669 -24.5671,24.90967 -10.6432,3.35301 -28.0193,4.87558 -30.3977,11.48141 -2.598,7.21585 9.4202,18.7515 9.4202,18.7515 l 519.458,-1.84304 37.0216,-460.62856 -37.3589,20.69474 -51.4639,-24.69544 -55.7079,13.88211 -56.2989,-14.92735 -67.8272,18.82843 -64.8803,-41.27189 -66.2838,26.85417 z"
         sodipodi:nodetypes="cssssssczsccccccccccc" />
      <circle
         style="fill:#ffffff;fill-opacity:1;stroke:#ffffff;stroke-width:0.960904;stroke-miterlimit:4;stroke-dasharray:none;stroke-opacity:1"
         id="path1848"
         cx="-2382.6313"
         cy="609.18353"
         r="141.16989" />
      <path
         style="fill:#8eb7c1;fill-opacity:1;stroke:#000000;stroke-width:0;stroke-miterlimit:4;stroke-dasharray:none;stroke-opacity:1"
         d="m -2414.1425,658.08656 c 2.5204,-1.26207 3.9288,-2.57887 5.9267,-5.54065 1.4898,-2.20845 2.2952,-2.97131 4.0416,-3.82751 3.7987,-1.86261 4.9376,-2.67009 6.7648,-4.79623 2.8665,-3.33541 2.935,-3.37671 8.6799,-5.22493 4.8493,-1.56005 5.7479,-1.98082 7.653,-3.58352 4.6843,-3.94085 6.0519,-8.93128 3.4295,-12.51383 -1.1054,-1.51015 -5.5433,-4.01501 -7.9965,-4.51357 -1.2317,-0.25029 -4.6592,-0.39911 -7.6168,-0.33071 -6.5491,0.15142 -7.5609,0.0316 -12.3712,-1.466 -4.3109,-1.3422 -6.8318,-1.62918 -8.9835,-1.02299 -2.8963,0.81588 -6.1103,4.35011 -6.6286,7.28861 -0.1525,0.86554 -0.2557,4.18352 -0.2291,7.37324 0.058,7.04855 -0.312,9.00352 -2.7865,14.68893 -2.4745,5.68522 -2.5401,6.03306 -1.7118,9.05906 0.5708,2.0865 0.9829,2.79161 2.3011,3.9425 2.614,2.2818 5.611,2.42886 9.5274,0.4676 z m -20.7517,-8.5974 c 0.8533,-0.80176 1.8834,-2.38097 2.289,-3.50936 0.6914,-1.92332 0.6642,-2.39637 -0.435,-7.56458 l -1.1724,-5.513 -1.9999,-2.1117 c -2.5545,-2.69702 -4.8476,-3.94341 -8.5619,-4.65367 -4.7163,-0.90173 -8.9994,0.22178 -10.7957,2.83177 -1.3237,1.92363 -1.2859,5.89131 0.105,11.04183 1.0325,3.82194 1.2498,4.26465 2.9727,6.04884 2.6804,2.77604 8.2772,5.93968 10.4925,5.93102 2.8885,-0.0113 5.3951,-0.89361 7.1059,-2.50111 z m 52.446,-39.0616 c 1.6947,-1.43872 2.9397,-4.70653 2.9349,-7.70298 0,-2.34045 -1.3042,-6.92101 -2.474,-8.71562 -1.9391,-2.97421 -8.1903,-6.56611 -13.0205,-7.48136 -4.8069,-0.9108 -8.6481,1.77474 -9.5766,6.69512 -0.4465,2.36763 -0.3894,2.90989 0.6036,5.72663 1.7967,5.09709 3.3374,6.80647 8.9221,9.89888 2.6578,1.47161 5.4972,2.81365 6.3098,2.98228 2.4767,0.51383 4.599,0.0413 6.3004,-1.40291 z m -51.6242,8.13629 c 1.0544,-0.82174 1.4022,-1.53142 1.659,-3.38528 1.0005,-7.21803 -2.3214,-15.08972 -8.1956,-19.42068 -1.8809,-1.3869 -3.2392,-1.97177 -5.6495,-2.4326 -2.8041,-0.53618 -3.5568,-0.50037 -6.4748,0.30816 -5.3742,1.48892 -6.3052,2.98326 -6.182,9.92237 0.042,2.36175 0.2267,3.13563 1.1783,4.94338 3.0561,5.8022 11.0307,11.75669 16.3506,12.20829 2.0316,0.17247 5.7351,-0.91286 7.314,-2.1435 z m 20.6203,-15.77528 c 2.7006,-2.22644 4.2475,-7.94784 3.2138,-11.88744 -0.4645,-1.77046 -1.3564,-3.25898 -4.2666,-7.12151 -5.3184,-7.05902 -7.5411,-8.51004 -12.4282,-8.1137 -4.5715,0.37072 -6.9904,2.2313 -8.2353,6.33504 -0.6717,2.21434 -0.6771,6.22289 -0.012,8.64095 1.0539,3.83015 5.6,8.93134 10.2828,11.53902 4.8227,2.68551 8.6765,2.89014 11.4454,0.60764 z m 39.4969,-28.73178 c 1.0205,-0.71882 2.6045,-2.20697 3.52,-3.30699 1.5161,-1.82108 1.9908,-2.11239 5.3067,-3.25556 3.0471,-1.05053 4.049,-1.61553 6.1361,-3.46063 2.3588,-2.08532 2.6869,-2.2487 6.0393,-3.00729 9.3712,-2.1206 10.8452,-2.63547 13.1356,-4.58843 5.9537,-5.07665 5.5441,-10.5347 -1.1286,-15.04432 -2.6123,-1.76547 -4.5639,-2.30054 -10.062,-2.75875 -5.2381,-0.4366 -7.5967,-1.06389 -12.4119,-3.30144 -4.3773,-2.03398 -6.4966,-2.35261 -9.7584,-1.46727 -4.7908,1.30047 -6.5015,3.72269 -7.045,9.9762 -0.6891,7.92935 -1.4223,10.34192 -5.0459,16.60005 -1.8462,3.18829 -3.4677,6.32508 -3.6037,6.97061 -0.136,0.64554 0.039,2.21461 0.3891,3.48685 0.7618,2.76858 2.4167,4.51367 4.9976,5.26994 2.389,0.70002 6.9836,-0.31843 9.5309,-2.11296 z m -21.0431,-11.47698 c 1.7581,-2.86592 2.116,-4.15933 1.9815,-7.15934 -0.2265,-5.05 -0.5339,-6.51587 -1.8415,-8.77848 -2.6184,-4.53119 -5.5659,-6.54464 -10.9194,-7.45893 -2.5763,-0.43995 -3.3363,-0.38719 -5.5823,0.38749 -3.0717,1.05942 -3.9309,2.14867 -4.4076,5.58819 -0.927,6.68898 0.2641,11.54312 3.8137,15.53844 4.1287,4.64728 8.6296,6.26426 13.6167,4.89185 1.5731,-0.43287 1.9878,-0.80669 3.3389,-3.00922 z m 56.2734,-29.83177 c 2.9607,-1.81615 4.1294,-8.04622 2.5714,-13.70798 -0.6819,-2.47741 -1.138,-3.33337 -2.7071,-5.07841 -2.569,-2.85713 -6.7295,-5.78392 -9.5785,-6.73843 -5.9209,-1.98362 -10.7782,2.53617 -10.6472,9.90751 0.057,3.3013 1.2578,5.9491 4.1378,9.13461 4.2998,4.756 7.3158,6.86562 10.6499,7.44842 2.4663,0.43116 3.6232,0.2307 5.5737,-0.96572 z m -52.3051,0.72066 c 2.6341,-2.54346 3.356,-6.82434 2.1157,-12.54579 -2.2728,-10.48272 -8.9098,-15.86036 -17.4664,-14.1516 -5.2249,1.04344 -6.5056,2.63418 -6.8445,8.5022 -0.3143,5.43976 1.4737,9.95285 5.7347,14.4768 5.213,5.53442 12.8036,7.24917 16.4605,3.71839 z m 21.8252,-12.19079 c 2.8104,-1.79178 5.0163,-5.27845 5.5794,-8.81816 0.421,-2.64734 -0.6811,-6.38265 -3.3571,-11.38081 -3.3445,-6.24609 -5.4144,-8.08087 -9.8627,-8.74317 -2.6715,-0.39778 -6.5781,0.54536 -8.1061,1.95705 -2.413,2.22898 -3.7342,7.60473 -2.9193,11.87795 0.989,5.18648 4.8497,10.50676 9.9571,13.72155 3.7347,2.35072 6.504,2.79136 8.7087,1.38559 z"
         id="path986-9-4" />
      <text
         xml:space="preserve"
         style="font-style:normal;font-variant:normal;font-weight:bold;font-stretch:normal;font-size:65.5322px;line-height:1.25;font-family:Comfortaa;-inkscape-font-specification:'Comfortaa Bold';word-spacing:0px;fill:#ffffff;fill-opacity:1;stroke:none;stroke-width:1.09921;stroke-miterlimit:4;stroke-dasharray:none;stroke-opacity:1"
         x="-2744.0835"
         y="430.92484"
         id="text1025-4-2"><tspan
           sodipodi:role="line"
           id="tspan1023-8-5"
           x="-2744.0835"
           y="430.92484"
           style="font-style:normal;font-variant:normal;font-weight:300;font-stretch:normal;font-family:Comfortaa;-inkscape-font-specification:'Comfortaa Light';fill:#ffffff;fill-opacity:1;stroke:none;stroke-width:1.09921;stroke-miterlimit:4;stroke-dasharray:none;stroke-opacity:1">Under Fjellet</tspan></text>
      <path
         id="path1446-5"
         style="fill:#8eb7c1;fill-opacity:1;stroke-width:3.07758"
         d="m -2936.1252,404.40589 -4.1703,9.81697 c -3.4526,8.12612 -4.5135,8.98485 -6.1583,4.98782 -4.148,-10.08036 -7.3597,-2.25954 -20.5134,25.17418 -2.92,6.09023 -8.1484,11.96726 -12.5285,19.84838 -5.5687,10.01953 -8.2829,15.44653 -10.7027,21.06798 -2.8338,6.58285 -2.9816,21.78303 -5.5516,22.90712 -3.5889,1.56974 -11.8554,14.03564 -20.8902,21.917 -22.4066,19.54596 -34.5907,51.0151 -37.9124,97.91858 -1.2283,17.3432 -3.1599,29.91776 -6.9882,41.38663 h 218.1924 c -1.2487,-2.19779 -2.4563,-4.04458 -3.5786,-5.39864 -2.8881,-3.48461 -3.4172,-8.72514 -1.5885,-15.73392 2.7089,-10.38109 3.0325,-10.60813 26.4495,-18.54719 l 19.5874,-8.63928 9.5752,-13.41416 c 11.5652,-16.20229 5.7117,-40.28123 -3.2407,-46.66898 -14.5593,-10.38866 -24.5251,-21.57974 -32.9246,-36.97296 -13.0583,-23.93153 -36.3321,-32.89951 -60.026,-37.6982 -18.319,-3.71009 -28.3335,-26.70799 -37.2908,-51.80769 z"
         sodipodi:nodetypes="ccsssssssccssccsssscc" />
      <text
         xml:space="preserve"
         style="font-style:normal;font-variant:normal;font-weight:bold;font-stretch:normal;font-size:89.5985px;line-height:1.25;font-family:Comfortaa;-inkscape-font-specification:'Comfortaa Bold';word-spacing:0px;fill:#ffffff;fill-opacity:1;stroke:#ffffff;stroke-width:3.30636;stroke-miterlimit:4;stroke-dasharray:none;stroke-opacity:1"
         x="-2818.9807"
         y="334.76868"
         id="text1025-4-2-2"><tspan
           sodipodi:role="line"
           id="tspan1023-8-5-2"
           x="-2818.9807"
           y="334.76868"
           style="font-style:normal;font-variant:normal;font-weight:bold;font-stretch:normal;font-family:Comfortaa;-inkscape-font-specification:'Comfortaa Bold';fill:#ffffff;fill-opacity:1;stroke:#ffffff;stroke-width:3.30636;stroke-miterlimit:4;stroke-dasharray:none;stroke-opacity:1">Dyrlegen</tspan></text>
      <ellipse
         style="fill:#ffffff;fill-opacity:1;stroke-width:0.782108"
         id="path915"
         cx="-2854.6716"
         cy="542.42188"
         rx="11.063329"
         ry="7.9670105" />
    </g>
  </g>
</svg>
