<?xml version="1.0" encoding="UTF-8" standalone="no"?>
<svg
   xmlns:dc="http://purl.org/dc/elements/1.1/"
   xmlns:cc="http://creativecommons.org/ns#"
   xmlns:rdf="http://www.w3.org/1999/02/22-rdf-syntax-ns#"
   xmlns:svg="http://www.w3.org/2000/svg"
   xmlns="http://www.w3.org/2000/svg"
   xmlns:sodipodi="http://sodipodi.sourceforge.net/DTD/sodipodi-0.dtd"
   xmlns:inkscape="http://www.inkscape.org/namespaces/inkscape"
   width="66.470169mm"
   height="70.027184mm"
   viewBox="0 0 66.470169 70.027183"
   version="1.1"
   id="svg883"
   sodipodi:docname="location_icon.svg"
   inkscape:version="1.0.2 (e86c870879, 2021-01-15)">
  <defs
     id="defs877">
    <inkscape:path-effect
       effect="spiro"
       id="path-effect1480"
       is_visible="true"
       lpeversion="1" />
  </defs>
  <sodipodi:namedview
     id="base"
     pagecolor="#ffffff"
     bordercolor="#666666"
     borderopacity="1.0"
     inkscape:pageopacity="0.0"
     inkscape:pageshadow="2"
     inkscape:zoom="0.49497475"
     inkscape:cx="-592.32212"
     inkscape:cy="328.51913"
     inkscape:document-units="mm"
     inkscape:current-layer="layer1"
     inkscape:document-rotation="0"
     showgrid="false"
     fit-margin-top="0"
     fit-margin-left="0"
     fit-margin-right="0"
     fit-margin-bottom="0"
     inkscape:window-width="2498"
     inkscape:window-height="1348"
     inkscape:window-x="30"
     inkscape:window-y="60"
     inkscape:window-maximized="0" />
  <metadata
     id="metadata880">
    <rdf:RDF>
      <cc:Work
         rdf:about="">
        <dc:format>image/svg+xml</dc:format>
        <dc:type
           rdf:resource="http://purl.org/dc/dcmitype/StillImage" />
        <dc:title></dc:title>
      </cc:Work>
    </rdf:RDF>
  </metadata>
  <g
     inkscape:label="Layer 1"
     inkscape:groupmode="layer"
     id="layer1"
     transform="translate(-71.308759,-61.544156)">
    <path
       style="fill:#f5f06c;fill-opacity:1;stroke:none;stroke-width:0.270967px;stroke-linecap:butt;stroke-linejoin:miter;stroke-opacity:1"
       d="m 112.45876,70.324662 c -3.19901,-3.922339 -7.66538,-6.802405 -12.568766,-8.057489 -4.903387,-1.255084 -10.217943,-0.871322 -14.873945,1.113642 -4.656002,1.984964 -8.621402,5.565498 -11.033311,10.015343 -2.41191,4.449846 -3.246754,9.741796 -2.281179,14.710307 0.734674,3.780378 2.472218,7.323198 4.746635,10.430935 2.274418,3.10774 5.077474,5.79844 8.070154,8.22225 5.985361,4.84762 12.757899,8.67404 18.603862,13.68889 2.57355,2.20767 4.95826,4.63814 7.64804,6.70262 2.68978,2.06447 5.75492,3.77752 9.10918,4.27341 3.33032,0.49235 6.81051,-0.27319 9.69577,-2.00777 2.88525,-1.73458 5.1719,-4.41013 6.55683,-7.47859 1.38494,-3.06845 1.87985,-6.5142 1.54702,-9.86423 -0.33283,-3.35003 -1.48048,-6.60155 -3.20986,-9.48992 -3.25959,-5.444083 -8.44382,-9.481489 -12.03138,-14.715261 -3.81094,-5.559649 -5.7189,-12.320725 -9.97905,-17.544137 z"
       id="path1478"
       inkscape:path-effect="#path-effect1480"
       inkscape:original-d="m 112.45876,70.324662 c -10.79587,-9.551456 -46.225959,-1.141463 -40.757201,17.781803 3.659883,12.664145 20.540776,23.479125 31.420651,32.342075 3.44485,2.80622 11.01656,11.91133 16.75722,10.97603 17.61836,-2.87046 21.33711,-17.57313 14.58976,-28.84051 -3.14575,-5.25306 -10.1105,-8.984771 -12.03138,-14.715261 -2.33129,-6.95478 0.81681,-7.992685 -9.97905,-17.544137 z"
       sodipodi:nodetypes="zsssssz" />
    <path
       style="fill:#000000;stroke-width:0.264583"
       d="m 81.770792,116.66227 4.669965,-9.78456 6.124918,-0.0712 6.12492,-0.0712 -3.808017,-7.902551 c -2.094409,-4.3464 -3.941928,-8.39452 -4.105598,-8.99583 -0.472354,-1.73539 -0.339259,-5.0905 0.281101,-7.08608 0.649316,-2.08873 2.267257,-4.61056 3.80216,-5.92631 1.680704,-1.44074 4.516064,-2.72012 6.794059,-3.06566 3.5934,-0.54506 7.67067,0.64677 10.50122,3.06961 1.53126,1.3107 3.14999,3.83407 3.79917,5.92236 0.62185,2.00038 0.75317,5.35166 0.27811,7.09719 -0.16532,0.60741 -2.01589,4.65554 -4.11239,8.99583 l -3.81182,7.891441 6.16731,0.0709 6.1673,0.0709 0.54261,1.25205 c 0.29844,0.68863 2.38733,5.09182 4.64198,9.78487 l 4.09936,8.53281 H 103.51399 77.100826 Z m 13.268923,1.41375 v -6.51872 l -1.500441,0.17635 c -1.849539,0.21737 -3.210303,0.80564 -5.516847,2.38497 -1.000323,0.68493 -2.231281,1.29217 -2.805593,1.38401 -1.1081,0.17719 -1.123035,0.20179 -4.355626,7.17388 l -0.889382,1.91823 h 7.533944 7.533945 z m 31.065095,4.50126 c -1.52845,-3.35398 -1.32307,-3.15987 -2.37038,-2.24032 -1.32189,1.16064 -3.2053,1.64423 -7.02718,1.80431 -7.1673,0.30022 -10.83179,-1.22129 -15.22166,-6.32008 -2.184325,-2.53707 -3.536255,-3.67985 -4.792225,-4.05085 l -0.59532,-0.17585 v 6.50013 6.50012 h 15.463085 15.46307 z m -4.49867,-1.97903 c 0.85982,-0.34854 1.7936,-0.9448 2.07507,-1.325 l 0.51176,-0.69129 -1.14902,-2.35142 -1.14902,-2.35143 -3.04271,-0.14606 c -3.14343,-0.1509 -5.2045,-0.65839 -6.26308,-1.54213 -0.8014,-0.66905 -1.67225,-2.16564 -1.67343,-2.87587 -0.001,-0.5593 -0.11057,-0.59531 -1.81266,-0.59531 h -1.81168 l -1.80513,3.83646 c -0.99282,2.11005 -1.88579,3.83646 -1.98438,3.83646 -0.0986,0 -0.99155,-1.72641 -1.98437,-3.83646 l -1.805145,-3.83646 h -1.80715 -1.80715 v 1.04771 c 0,1.00581 0.045,1.06057 1.12448,1.36903 0.9184,0.26243 1.80333,1.01143 4.828655,4.08694 4.02102,4.08775 5.15488,4.85265 8.46667,5.71167 2.81349,0.72976 8.91432,0.54444 11.08829,-0.33684 z m -34.148034,-7.12257 c 2.605796,-1.74286 4.008625,-2.34121 5.969468,-2.54615 l 1.612141,-0.16851 v -1.02064 -1.02064 H 91.25629 87.472865 l -1.309804,2.82209 c -0.720393,1.55215 -1.349492,2.92137 -1.397999,3.04271 -0.22355,0.55921 0.875947,0.10649 2.693044,-1.10886 z m 33.049974,-2.63928 -0.95192,-2.11666 h -3.92384 c -4.37881,0 -4.46058,0.0425 -3.40632,1.77156 1.02438,1.68003 3.07621,2.40143 6.93793,2.43927 l 2.29608,0.0225 z M 106.17753,90.610439 c 1.12153,-0.7422 2.094,-2.54604 2.08555,-3.86851 -0.007,-1.12223 -0.77311,-2.83318 -1.61293,-3.60301 -1.67911,-1.53915 -4.62365,-1.53915 -6.27837,0 -1.609175,1.4968 -2.026435,3.68839 -1.076025,5.65169 1.252365,2.58701 4.446215,3.4316 6.881775,1.81983 z"
       id="path1476" />
  </g>
</svg>
