<?xml version="1.0" encoding="UTF-8" standalone="no"?>
<svg
   xmlns:dc="http://purl.org/dc/elements/1.1/"
   xmlns:cc="http://creativecommons.org/ns#"
   xmlns:rdf="http://www.w3.org/1999/02/22-rdf-syntax-ns#"
   xmlns:svg="http://www.w3.org/2000/svg"
   xmlns="http://www.w3.org/2000/svg"
   xmlns:sodipodi="http://sodipodi.sourceforge.net/DTD/sodipodi-0.dtd"
   xmlns:inkscape="http://www.inkscape.org/namespaces/inkscape"
   width="61.847248mm"
   height="61.026161mm"
   viewBox="0 0 61.847248 61.026161"
   version="1.1"
   id="svg8"
   inkscape:version="1.0.2 (e86c870879, 2021-01-15)"
   sodipodi:docname="time_icon.svg">
  <defs
     id="defs2">
    <inkscape:path-effect
       effect="spiro"
       id="path-effect857"
       is_visible="true"
       lpeversion="1" />
  </defs>
  <sodipodi:namedview
     id="base"
     pagecolor="#ffffff"
     bordercolor="#666666"
     borderopacity="1.0"
     inkscape:pageopacity="0.0"
     inkscape:pageshadow="2"
     inkscape:zoom="0.49497475"
     inkscape:cx="623.81955"
     inkscape:cy="776.66025"
     inkscape:document-units="mm"
     inkscape:current-layer="layer1"
     inkscape:document-rotation="0"
     showgrid="false"
     inkscape:snap-global="false"
     inkscape:window-width="1233"
     inkscape:window-height="1348"
     inkscape:window-x="1295"
     inkscape:window-y="60"
     inkscape:window-maximized="0"
     fit-margin-top="0"
     fit-margin-left="0"
     fit-margin-right="0"
     fit-margin-bottom="0" />
  <metadata
     id="metadata5">
    <rdf:RDF>
      <cc:Work
         rdf:about="">
        <dc:format>image/svg+xml</dc:format>
        <dc:type
           rdf:resource="http://purl.org/dc/dcmitype/StillImage" />
        <dc:title />
      </cc:Work>
    </rdf:RDF>
  </metadata>
  <g
     inkscape:label="Layer 1"
     inkscape:groupmode="layer"
     id="layer1"
     transform="translate(-57.735213,-35.642169)">
    <path
       style="fill:#f79bad;fill-opacity:1;stroke:none;stroke-width:0.231442px;stroke-linecap:butt;stroke-linejoin:miter;stroke-opacity:1"
       d="M 98.361962,89.012162 C 94.924498,89.749726 91.327661,89.466987 87.909828,88.643226 84.491996,87.819464 81.226151,86.468706 78.005725,85.058381 72.719979,82.743589 67.363369,80.145668 63.505769,75.854247 60.890881,72.945292 59.073215,69.334065 58.250855,65.510011 57.428495,61.685958 57.59866,57.6583 58.697743,53.904412 c 2.198165,-7.507777 8.190115,-13.725403 15.500792,-16.50976 7.310676,-2.784358 15.768955,-2.181235 22.767559,1.314216 6.998606,3.49545 12.495086,9.768098 15.363676,17.046137 2.50913,6.366054 3.02701,13.650911 0.63119,20.060472 -1.1979,3.20478 -3.10946,6.153854 -5.6226,8.475433 -2.51314,2.321579 -5.63119,4.003483 -8.976398,4.721252 z"
       id="path855"
       inkscape:path-effect="#path-effect857"
       inkscape:original-d="M 98.361962,89.012162 C 89.589805,91.476487 84.625895,88.691872 78.005725,85.058381 73.210394,82.426455 67.179686,80.068377 63.505769,75.854247 48.210299,58.309739 96.04934,30.448868 112.32977,55.755005 c 7.93284,12.330691 -5.19565,30.792832 -13.967808,33.257157 z"
       sodipodi:nodetypes="zsssz" />
    <path
       style="fill:#000000;stroke-width:0.264583"
       d="m 89.338558,96.407312 c -5.30765,-0.7576 -10.92712,-3.6006 -14.82864,-7.50212 -3.31165,-3.31165 -5.91887,-7.92617 -7.04179,-12.46328 -0.783734,-3.16663 -0.843757,-8.77857 -0.12718,-11.89036 1.28236,-5.56867 4.56612,-10.99638 8.75738,-14.47499 14.66529,-12.17172 36.629152,-5.69464 42.331262,12.48336 2.86693,9.13962 0.2822,19.47361 -6.58947,26.34527 -5.8586,5.85861 -14.299512,8.67284 -22.501562,7.50212 z m 9.99696,-2.06138 c 2.344492,-0.61569 5.892462,-2.20838 7.775982,-3.49064 1.83985,-1.25252 4.98306,-4.34526 6.33859,-6.23681 1.48844,-2.077 3.13126,-5.57957 3.85445,-8.21789 0.82127,-2.99611 0.8139,-9.3497 -0.0144,-12.3782 -2.38372,-8.71601 -9.20892,-15.54185 -17.897442,-17.89911 -3.07992,-0.83561 -9.40403,-0.83909 -12.43542,-0.007 -8.73239,2.39741 -15.50854,9.17356 -17.90595,17.90595 -0.83224,3.03139 -0.82876,9.35549 0.007,12.43542 2.54647,9.38591 10.17282,16.45904 19.70927,18.27956 2.642,0.50436 7.89833,0.30967 10.56804,-0.39143 z m -6.7667,-1.78148 c -0.10315,-0.10315 -0.18755,-0.98656 -0.18755,-1.96314 0,-1.97757 0.43328,-2.7335 1.20139,-2.09604 0.31211,0.25903 0.38961,0.77811 0.33073,2.21521 -0.0679,1.65781 -0.13995,1.88593 -0.61696,1.95421 -0.29703,0.0425 -0.62446,-0.007 -0.72761,-0.11024 z m -10.85907,-2.92158 c -0.32867,-0.32866 -0.17864,-0.83589 0.6835,-2.31083 0.6362,-1.08839 1.01477,-1.47245 1.45521,-1.47631 0.85398,-0.007 0.76991,0.81081 -0.26025,2.53312 -0.7789,1.30223 -1.40937,1.72312 -1.87846,1.25402 z m 21.023462,-1.26076 c -0.88926,-1.57568 -1.0373,-2.39426 -0.47222,-2.6111 0.50935,-0.19546 0.75724,0.0387 1.72327,1.6279 0.94763,1.55892 0.9869,2.24617 0.13531,2.36826 -0.43724,0.0627 -0.74003,-0.23982 -1.38636,-1.38506 z m -29.041682,-6.89722 c -0.25492,-0.66433 0.0548,-1.02514 1.56752,-1.8261 1.50893,-0.79895 2.30555,-0.78619 2.30555,0.0369 0,0.3078 -0.5503,0.77893 -1.55492,1.33122 -1.74463,0.95912 -2.09897,1.02911 -2.31815,0.45795 z m 36.615262,-0.46277 c -1.15151,-0.64672 -1.52135,-0.99985 -1.52135,-1.4526 0,-0.8425 0.75419,-0.77435 2.5316,0.22876 1.14524,0.64633 1.44774,0.94912 1.38506,1.38636 -0.11881,0.82871 -0.70066,0.78924 -2.39531,-0.16252 z m -19.278802,-8.92994 -1.00677,-1.05834 h -5.26987 c -4.36155,0 -5.32664,-0.0684 -5.59924,-0.39687 -0.26278,-0.31663 -0.26278,-0.47712 0,-0.79375 0.27253,-0.32839 1.23574,-0.39688 5.58168,-0.39688 h 5.25231 l 1.19429,-1.19429 1.19429,-1.19429 0.0694,-9.58748 0.0694,-9.58748 h 0.66146 0.66146 l 0.0695,9.6049 0.0695,9.6049 1.05502,1.00361 c 0.90775,0.86352 1.05502,1.16076 1.05502,2.12937 0,0.9275 -0.15843,1.28419 -0.89958,2.02535 -0.74116,0.74115 -1.09785,0.89958 -2.02535,0.89958 -0.9692,0 -1.26576,-0.14718 -2.13252,-1.05833 z m 3.15245,-0.84667 c 0.17462,-0.17462 0.3175,-0.62706 0.3175,-1.00542 0,-0.37835 -0.14288,-0.83079 -0.3175,-1.00541 -0.17463,-0.17463 -0.62706,-0.3175 -1.00542,-0.3175 -0.37835,0 -0.83079,0.14287 -1.00541,0.3175 -0.40929,0.40929 -0.40929,1.60154 0,2.01083 0.17462,0.17463 0.62706,0.3175 1.00541,0.3175 0.37836,0 0.83079,-0.14287 1.00542,-0.3175 z m -23.39932,-0.60854 c -0.35373,-0.9218 0.0934,-1.19063 1.98028,-1.19063 2.01975,0 2.79186,0.42612 2.15737,1.19063 -0.23462,0.2827 -0.85527,0.39687 -2.15737,0.39687 -1.3808,0 -1.86525,-0.0971 -1.98028,-0.39687 z m 40.659082,0.0108 c -0.27468,-0.33098 -0.27468,-0.48429 0,-0.81527 0.25903,-0.31211 0.77811,-0.38961 2.21521,-0.33073 1.80514,0.0739 1.87691,0.10219 1.87691,0.73835 0,0.63617 -0.0718,0.6644 -1.87691,0.73837 -1.4371,0.0589 -1.95618,-0.0186 -2.21521,-0.33073 z M 74.976408,60.640022 c -1.03058,-0.62751 -1.37796,-0.98921 -1.32291,-1.37743 0.11609,-0.81878 0.8216,-0.76854 2.36271,0.16827 1.58919,0.96603 1.82335,1.21391 1.6279,1.72326 -0.22158,0.57741 -1.17771,0.39316 -2.6677,-0.5141 z m 33.814252,0.27351 c 0.004,-0.44137 0.39067,-0.82066 1.49584,-1.46678 1.64101,-0.95939 2.29388,-1.00025 2.4156,-0.1512 0.0627,0.43724 -0.23982,0.74002 -1.38506,1.38636 -1.77585,1.00222 -2.53375,1.07171 -2.52638,0.23162 z m -26.408982,-7.77729 c -0.9594,-1.64942 -1.00009,-2.30152 -0.1512,-2.42322 0.43819,-0.0628 0.74187,0.24309 1.40139,1.4117 0.91878,1.62798 0.96158,2.33524 0.14774,2.44122 -0.39249,0.0511 -0.74822,-0.3127 -1.39793,-1.4297 z m 19.605962,1.05926 c -0.097,-0.25268 0.17706,-1.05457 0.65548,-1.91823 0.62655,-1.13106 0.96623,-1.48405 1.42806,-1.48405 0.90234,0 0.87301,0.66628 -0.10281,2.33539 -0.8833,1.51086 -1.65157,1.92468 -1.98073,1.06689 z"
       id="path847" />
  </g>
</svg>
