<?xml version="1.0" encoding="UTF-8" standalone="no"?>
<svg
   xmlns:dc="http://purl.org/dc/elements/1.1/"
   xmlns:cc="http://creativecommons.org/ns#"
   xmlns:rdf="http://www.w3.org/1999/02/22-rdf-syntax-ns#"
   xmlns:svg="http://www.w3.org/2000/svg"
   xmlns="http://www.w3.org/2000/svg"
   xmlns:sodipodi="http://sodipodi.sourceforge.net/DTD/sodipodi-0.dtd"
   xmlns:inkscape="http://www.inkscape.org/namespaces/inkscape"
   width="418.61765mm"
   height="273.10901mm"
   viewBox="0 0 418.61765 273.10901"
   version="1.1"
   id="svg1465"
   inkscape:version="1.0.2 (e86c870879, 2021-01-15)"
   sodipodi:docname="vet_illustration_1.svg">
  <defs
     id="defs1459" />
  <sodipodi:namedview
     id="base"
     pagecolor="#ffffff"
     bordercolor="#666666"
     borderopacity="1.0"
     inkscape:pageopacity="0.0"
     inkscape:pageshadow="2"
     inkscape:zoom="0.7"
     inkscape:cx="988.36939"
     inkscape:cy="440.15192"
     inkscape:document-units="mm"
     inkscape:current-layer="layer1"
     inkscape:document-rotation="0"
     showgrid="false"
     fit-margin-top="0"
     fit-margin-left="0"
     fit-margin-right="0"
     fit-margin-bottom="0"
     inkscape:window-width="1233"
     inkscape:window-height="658"
     inkscape:window-x="1295"
     inkscape:window-y="750"
     inkscape:window-maximized="0" />
  <metadata
     id="metadata1462">
    <rdf:RDF>
      <cc:Work
         rdf:about="">
        <dc:format>image/svg+xml</dc:format>
        <dc:type
           rdf:resource="http://purl.org/dc/dcmitype/StillImage" />
        <dc:title></dc:title>
      </cc:Work>
    </rdf:RDF>
  </metadata>
  <g
     inkscape:label="Layer 1"
     inkscape:groupmode="layer"
     id="layer1"
     transform="translate(107.04729,6.2352648)">
    <rect
       style="fill:#ffffff;stroke-width:0.135895;stop-color:#000000;fill-opacity:1"
       id="rect2371"
       width="418.61765"
       height="273.10901"
       x="-107.04729"
       y="-6.2352648" />
    <g
       id="g1406"
       inkscape:export-filename="/home/rafael/src/underfjellet.vet/static/images/vet_illustration_1.png"
       inkscape:export-xdpi="299.90952"
       inkscape:export-ydpi="299.90952"
       transform="matrix(3.8940533,0,0,3.8940533,-456.43184,-56.669023)">
      <path
         style="fill:#eaf3f8;fill-opacity:1;stroke:none;stroke-width:0.201244px;stroke-linecap:butt;stroke-linejoin:miter;stroke-opacity:1"
         d="m 154.73466,52.826732 c -1.76852,-2.022963 -7.42333,-20.468691 6.04737,-17.77718 2.07067,0.41373 4.21817,2.739943 5.67423,4.200126 10.17911,10.207885 -12.6703,18.935637 -16.23779,25.803106 -1.00889,1.942125 -2.98638,8.52752 -0.29065,9.875383 2.54135,1.270676 6.87077,-0.377874 8.90778,-1.44774 14.28199,-7.501095 -2.33242,-18.630732 -4.10094,-20.653695 z"
         id="path1394"
         sodipodi:nodetypes="zscsssz" />
      <path
         style="fill:#eaf3f8;fill-opacity:1;stroke:none;stroke-width:0.209883px;stroke-linecap:butt;stroke-linejoin:miter;stroke-opacity:1"
         d="m 128.23079,80.281453 c -2.93426,-4.503342 -7.42446,-8.116877 -7.8568,-12.363976 -0.5103,-5.012881 -0.0593,-8.791993 -1.26912,-13.667471 -0.58636,-2.362844 -2.04187,-11.811446 1.28085,-13.115637 1.16019,-0.455384 8.5034,4.428298 9.48839,5.755221 4.97676,6.704457 1.70304,14.823754 1.22615,22.334907 -0.15214,2.396505 -0.35566,9.44765 -2.86947,11.056956 z"
         id="path1392"
         sodipodi:nodetypes="csssssc" />
      <path
         style="fill:#000000;stroke-width:0.172152"
         d="m 126.08481,82.03789 c -0.14199,-0.0819 -1.49772,-0.195663 -3.01264,-0.252815 -1.51495,-0.057 -4.26507,-0.303549 -6.11138,-0.54753 -4.56781,-0.603666 -9.24023,-0.735515 -12.52737,-0.353556 -1.35107,0.157073 -2.59056,0.327009 -2.75443,0.377836 -0.2454,0.07612 -0.25241,0.06334 -0.0397,-0.07266 0.63323,-0.404411 3.47481,-0.635408 7.66076,-0.622788 3.65064,0.01092 4.85242,0.08479 7.91896,0.485901 1.98835,0.26011 4.72996,0.517831 6.09243,0.572697 l 2.47722,0.0997 -0.11769,-0.626342 c -0.0648,-0.344499 -0.26741,-0.956662 -0.45065,-1.360374 -0.33825,-0.74516 -0.439,-1.776216 -0.20897,-2.137981 0.0696,-0.109502 0.1351,0.200476 0.14562,0.688611 0.0106,0.488117 0.20319,1.410416 0.42813,2.049528 0.39192,1.113642 0.43232,1.162017 0.97069,1.162017 0.6449,0 0.65159,-0.01632 0.29997,-0.695453 -0.33204,-0.642125 -0.80304,-3.035406 -0.86258,-4.383012 l -0.0456,-1.032906 0.13094,1.032906 c 0.25131,1.981813 0.77909,4.062877 1.19657,4.718099 0.13082,0.205018 0.31518,0.208013 1.20342,0.01959 0.57703,-0.122392 1.04841,-0.308885 1.04751,-0.414318 -8.6e-4,-0.254242 -0.97581,-1.944641 -1.19987,-2.083105 -0.28009,-0.173055 -0.20394,-0.866407 0.14419,-1.313176 0.84087,-1.078924 1.12585,-2.329123 0.66444,-2.914664 -0.42431,-0.538435 -1.07914,-0.852861 -1.7763,-0.852861 -0.80011,0 -0.99372,0.160891 -1.24287,1.032927 -0.15725,0.55033 -0.17342,0.562352 -0.18766,0.138736 -0.0247,-0.736424 0.6652,-1.406314 1.419,-1.377987 2.06351,0.07754 2.78937,1.849907 1.51572,3.701081 -0.62723,0.911661 -0.65572,1.131294 -0.21906,1.689651 0.17652,0.225809 0.52649,0.81727 0.77758,1.314355 0.41156,0.814821 0.51232,0.9038 1.02324,0.9038 0.58377,0 1.32175,0.392304 1.04596,0.555991 -0.0854,0.05065 -0.40192,0.145095 -0.70348,0.209664 -0.43068,0.09244 -0.62668,0.03909 -0.91389,-0.248067 -0.34404,-0.344061 -0.42335,-0.352866 -1.34536,-0.149266 -0.5389,0.118941 -1.05726,0.312933 -1.15194,0.431044 -0.23351,0.291273 -0.97429,0.437376 -1.29117,0.254661 z m 0.86076,-0.193237 c 0.20122,-0.130013 0.15381,-0.167427 -0.21518,-0.169423 -0.26039,-9.38e-4 -0.47342,0.07481 -0.47342,0.169423 0,0.217694 0.35179,0.217694 0.6886,0 z M 131.05,81.307747 c -0.12714,-0.0806 -0.46342,-0.145096 -0.74748,-0.143641 -0.46619,0.0019 -0.48711,0.02509 -0.21498,0.231696 0.16579,0.125844 0.50217,0.190468 0.74748,0.143641 0.32569,-0.06231 0.38369,-0.124751 0.21498,-0.231696 z m 52.70559,0.618282 c -3.08879,-0.459624 -7.98807,-0.640455 -14.66951,-0.541448 -3.97112,0.05886 -6.93337,0.176139 -7.45197,0.294995 -0.47342,0.108596 -1.69896,0.235791 -2.72341,0.282823 -1.78047,0.08171 -1.86685,0.06968 -1.95681,-0.274325 -0.0849,-0.324182 -0.22051,-0.359861 -1.36889,-0.359861 -0.70112,0 -2.91929,-0.153995 -4.92927,-0.342204 -7.37937,-0.691013 -12.66203,-0.749956 -16.17152,-0.180505 -0.59563,0.09679 -1.60282,0.176326 -2.23826,0.177053 -0.97073,9.37e-4 -1.21187,-0.05942 -1.50931,-0.378638 -0.4687,-0.503121 -0.71879,-1.478879 -0.54315,-2.119186 0.12241,-0.446153 0.15146,-0.373188 0.22155,0.555977 0.14364,1.904237 0.51245,2.023448 4.62679,1.495525 2.61751,-0.335833 8.58226,-0.382641 11.87334,-0.09319 4.37903,0.385215 6.11203,0.551765 6.79996,0.653552 l 0.68862,0.10187 -0.41852,-0.34074 c -0.38545,-0.313819 -0.40106,-0.382827 -0.19776,-0.873634 0.29757,-0.718391 0.88145,-1.066119 1.79015,-1.066119 0.57173,0 0.8711,0.107138 1.23026,0.439903 0.66026,0.611888 0.73408,0.407131 0.18875,-0.523418 l -0.46162,-0.787669 -0.64563,0.362855 c -1.01065,0.568017 -1.68812,0.416335 -2.34305,-0.52458 -0.60973,-0.875959 -1.82726,-1.611294 -3.87675,-2.341364 -2.89012,-1.029529 -4.11656,-1.816582 -4.58764,-2.94408 -0.61596,-1.474175 -0.11428,-3.415314 1.24136,-4.803942 2.78583,-2.853413 7.44522,-2.779723 9.90713,0.156713 l 0.89445,1.066866 -0.12162,-1.204892 c -0.15979,-1.581915 -0.51469,-2.182452 -1.40028,-2.368948 -0.94585,-0.199187 -2.93859,-0.240172 -3.86756,-0.07954 -1.11691,0.193157 -1.35531,-0.02234 -0.87847,-0.793899 0.36844,-0.596127 0.37021,-0.627633 0.0844,-1.501523 -0.27628,-0.844688 -0.27538,-0.962995 0.0164,-2.202443 0.16977,-0.720391 0.4706,-1.528689 0.66838,-1.796192 0.32342,-0.437434 0.37065,-0.810276 0.46943,-3.704904 l 0.10995,-3.218523 -0.0199,3.298523 -0.0199,3.298531 0.87957,-0.832214 c 1.33921,-1.267059 2.43555,-1.424693 4.3725,-0.628689 0.33058,0.135866 1.51134,0.302297 2.62387,0.369886 l 2.02278,0.122754 v -0.708246 c 0,-0.521032 -0.15835,-0.946756 -0.59917,-1.610673 -0.32958,-0.496344 -0.87899,-1.599072 -1.22092,-2.45051 -0.74177,-1.847038 -1.17193,-2.450189 -2.38839,-3.348841 -0.86999,-0.642687 -1.29127,-1.261315 -1.81779,-2.669337 -0.15183,-0.405759 -0.22375,-0.458789 -0.3506,-0.258228 -0.28752,0.454623 -0.17304,1.519447 0.28676,2.668122 0.48919,1.221961 0.44966,1.528176 -0.13056,1.011902 -0.90517,-0.805342 -1.24395,-2.447584 -0.74917,-3.631742 0.14329,-0.342888 0.22912,-0.654812 0.19077,-0.693161 -0.19391,-0.193928 -1.47562,0.576009 -2.13175,1.280579 -0.69182,0.742872 -0.75206,0.77313 -0.84348,0.423551 -0.0541,-0.207061 -0.19914,-0.376477 -0.32224,-0.376477 -0.12307,0 -0.2631,-0.09684 -0.31113,-0.21519 -0.0658,-0.161943 -0.13257,-0.151283 -0.26993,0.04304 -0.31085,0.439519 -0.21053,0.654439 0.39942,0.855733 0.32299,0.106614 0.6329,0.312622 0.68859,0.45781 0.13784,0.359392 0.10206,1.687478 -0.0738,2.732021 -0.10824,0.642647 -0.12189,0.462297 -0.0544,-0.711756 0.10337,-1.795802 -0.0386,-2.219 -0.80212,-2.386658 -0.54808,-0.120378 -0.67245,-0.508838 -0.35365,-1.104516 0.19142,-0.357712 -0.11428,-0.678082 -2.40223,-2.516674 -4.228,-3.397773 -6.56923,-5.922978 -9.22164,-9.946322 -2.08757,-3.16659 -2.36887,-3.516071 -3.0872,-3.835323 -0.41306,-0.183593 -0.44512,-0.23089 -0.16016,-0.236277 0.61333,-0.01156 1.34036,0.838803 3.52657,4.124898 1.89933,2.854914 2.38753,3.453908 4.7129,5.782777 1.42672,1.428888 3.57859,3.383266 4.78188,4.343068 l 2.18784,1.74509 0.0855,-0.55573 c 0.047,-0.305654 0.13421,-0.943076 0.19348,-1.41649 0.0593,-0.473417 0.25642,-1.199845 0.43797,-1.614288 0.18157,-0.414439 0.33006,-0.815138 0.33006,-0.890447 0,-0.0753 -0.26967,-0.225906 -0.59922,-0.334675 -1.56484,-0.516442 -3.97902,-2.554405 -6.82232,-5.759145 -0.93301,-1.051615 -1.32287,-1.399136 -3.59615,-3.205333 -1.83317,-1.456513 -5.16455,-4.667869 -5.16455,-4.978462 0,-0.09335 -0.29051,-0.354911 -0.64558,-0.581286 -0.56412,-0.359669 -0.79215,-0.40088 -1.80758,-0.32669 -0.63911,0.04671 -1.16201,0.141586 -1.16201,0.210853 0,0.06927 0.3103,0.265885 0.68958,0.436915 0.81553,0.367747 1.22962,0.774235 0.78872,0.774235 -0.1569,0 -0.47428,-0.123767 -0.70514,-0.275056 -0.38458,-0.251974 -0.44289,-0.251974 -0.69484,0 -0.15128,0.151285 -0.19555,0.275056 -0.0982,0.275056 0.0973,0 0.61256,0.425485 1.14522,0.945521 0.53264,0.520036 1.21394,1.016593 1.51401,1.103458 0.30006,0.08687 0.40615,0.164922 0.23574,0.173456 -0.47588,0.02385 -1.17517,-0.398496 -1.86953,-1.12915 -1.15566,-1.21607 -1.53069,-1.407612 -3.15,-1.608836 -2.19338,-0.27256 -4.24854,-0.642785 -6.20478,-1.117758 -0.94684,-0.22989 -2.29014,-0.511224 -2.98513,-0.625188 -1.40476,-0.230357 -1.793,-0.493613 -1.71537,-1.163147 0.0653,-0.562008 0.0556,-0.563039 2.77431,0.296734 1.21301,0.383596 2.99478,0.856955 3.95947,1.051912 2.26236,0.457186 5.83609,0.871426 6.05783,0.702171 0.0948,-0.07226 0.78085,-0.180465 1.52486,-0.240421 l 1.35271,-0.109003 1.01218,1.075317 c 2.18736,2.323731 3.60232,3.63366 5.8746,5.438513 1.2815,1.017891 2.74352,2.411877 4.00758,3.821075 1.09454,1.220211 2.43321,2.559281 2.97486,2.975715 1.11685,0.858673 2.96103,1.837456 3.46202,1.837456 0.47007,0 0.87974,0.177597 0.87974,0.381385 0,0.09483 -0.17667,0.128022 -0.39276,0.07381 -0.347,-0.08709 -0.43773,0.01616 -0.7785,0.885131 -0.41689,1.06321 -0.81445,3.708152 -0.60765,4.04277 0.0699,0.113114 0.21686,-0.412699 0.32657,-1.168471 0.20657,-1.423029 0.62844,-2.665269 0.90514,-2.665269 0.0873,0 -0.0228,0.832784 -0.24515,1.850631 -0.22224,1.017844 -0.40602,2.040222 -0.4084,2.271944 -0.003,0.398917 0.0331,0.383591 0.69827,-0.288275 0.74915,-0.756632 1.62025,-1.252024 2.20159,-1.252024 0.24984,0 0.32557,0.07905 0.25412,0.265266 -0.0611,0.158857 -0.0181,0.245178 0.10744,0.215191 0.24518,-0.05867 0.38112,0.152136 0.877,1.360097 0.27038,0.658634 0.67942,1.171492 1.5551,1.949725 0.65348,0.580803 1.18818,0.982163 1.18818,0.891911 0,-0.09025 -0.11189,-0.257002 -0.24877,-0.370556 -0.56128,-0.465822 -1.32248,-1.926496 -1.62524,-3.11867 -0.34412,-1.355002 -0.43902,-1.462006 -1.43851,-1.621624 -0.65892,-0.105233 -0.75458,-0.244291 -0.88947,-1.292857 -0.0878,-0.681356 -0.39591,-1.321113 -0.69115,-1.434406 -0.38135,-0.146343 -0.33906,-0.424146 0.16525,-1.085416 0.38473,-0.504406 0.42292,-0.676757 0.32066,-1.447514 -0.10349,-0.780576 -0.0502,-1.00835 0.49495,-2.112019 0.33605,-0.680397 0.66099,-1.461921 0.7221,-1.736718 0.24781,-1.114359 1.62601,-1.849006 3.46877,-1.849006 1.12837,0 2.91217,0.808912 4.41865,2.003746 2.49457,1.978549 5.10103,6.826976 5.88131,10.940256 0.33533,1.767904 0.33775,2.918596 0.009,4.181898 -0.14202,0.545272 -0.25826,1.2537 -0.25826,1.57428 0,0.866147 -0.4658,2.920026 -0.88128,3.885822 -0.20071,0.466575 -0.67525,1.128674 -1.05452,1.471317 -0.70864,0.640238 -0.92426,0.672143 -2.13974,0.31675 -0.39197,-0.114585 -0.42423,-0.01979 -0.64899,1.907216 -0.10048,0.860924 0.35858,3.257709 1.03211,5.389751 0.95222,3.014249 0.82486,4.149627 -0.68645,6.11915 -0.78102,1.017855 -1.05263,1.749414 -1.29413,3.485568 -0.10152,0.72947 -0.24911,1.41051 -0.32815,1.513472 -0.0789,0.10296 -0.32332,0.705988 -0.5429,1.340105 -0.33194,0.958548 -0.36154,1.198359 -0.1756,1.422369 0.40375,0.486517 0.69121,-0.01278 0.72755,-1.262187 l 0.0332,-1.140955 0.0611,1.072094 c 0.0585,1.025699 -0.1371,1.768406 -0.46541,1.768406 -0.0847,0 -0.27572,-0.12185 -0.42474,-0.270948 -0.24648,-0.246472 -0.31112,-0.223179 -0.71621,0.258234 -0.57185,0.679605 -0.80286,0.66663 -1.19815,-0.06735 -0.65752,-1.220978 -2.10376,-1.179339 -3.25383,0.09352 -0.95711,1.059381 -0.81228,1.267394 0.92455,1.327997 0.79497,0.02779 1.68231,-0.03218 1.97186,-0.133109 0.67431,-0.235073 3.92867,-0.49189 7.33837,-0.579115 5.92954,-0.151625 16.94328,0.438636 17.46478,0.936122 0.10336,0.09861 0.10336,0.147633 0,0.133473 -0.0898,-0.01278 -0.82202,-0.120582 -1.62683,-0.240334 z m -26.7597,-1.014131 c 0.46977,-0.343482 0.18489,-0.540087 -0.29527,-0.203787 -0.21658,0.151635 -0.5508,0.274101 -0.74278,0.272011 -0.22287,-0.0019 -0.0846,-0.123846 0.38262,-0.33587 0.84426,-0.383228 0.91664,-0.694902 0.27804,-1.197211 -0.71092,-0.559214 -1.7002,-0.483308 -2.31785,0.177772 -0.81121,0.868429 -0.6836,1.125871 0.67126,1.354255 1.25096,0.210896 1.66229,0.19723 2.02398,-0.06735 z m 5.07293,-0.622657 c 0.30717,-0.431369 0.3339,-0.56849 0.15344,-0.786036 -0.5948,-0.716705 -1.77949,-0.950248 -3.17817,-0.626544 -0.81704,0.189073 -1.4484,0.0072 -1.47267,-0.426448 -0.0714,-1.272646 -0.0531,-2.08472 0.055,-2.41567 0.17778,-0.546445 0.0197,-0.481018 -0.29137,0.120574 -0.3057,0.591116 -0.33064,0.759487 -0.0907,0.611091 0.29127,-0.179957 0.19096,0.187874 -0.17976,0.659084 l -0.35184,0.447314 0.43306,0.813491 c 0.28001,0.526034 0.39696,0.957241 0.33089,1.220345 l -0.10205,0.406892 0.64077,-0.434839 c 1.29696,-0.880135 2.39484,-0.761137 3.03822,0.329294 0.196,0.332186 0.42091,0.603974 0.49977,0.603974 0.0788,0 0.31088,-0.235138 0.51549,-0.522503 z m 0.90028,-1.887605 c 0.70646,-2.005384 0.76755,-2.336859 1.61457,-8.761246 0.41531,-3.150043 0.4425,-3.663602 0.26454,-5.000184 -0.10888,-0.819248 -0.32243,-1.85381 -0.47411,-2.29898 -0.27487,-0.806699 -0.27795,-0.809041 -0.9281,-0.705082 -0.40853,0.06537 -1.27235,-0.03686 -2.31141,-0.273658 l -1.65914,-0.377963 -0.33691,0.402243 c -0.58577,0.699307 -1.06515,2.225307 -1.15385,3.673114 -0.0685,1.119964 -8.5e-4,1.694265 0.36228,3.074556 0.57767,2.195164 0.56474,3.286294 -0.0772,6.514204 -0.28807,1.448696 -0.50108,2.94388 -0.47342,3.322607 l 0.0503,0.688612 0.77471,-0.03177 c 0.42606,-0.01815 1.1752,-0.05376 1.66468,-0.08026 0.73738,-0.04031 1.00211,0.03123 1.5435,0.416408 0.35941,0.255715 0.70142,0.408071 0.76,0.338559 0.0586,-0.06955 0.22933,-0.475007 0.37944,-0.901074 z m -7.13535,-0.176143 c 0.31307,-0.190889 0.67092,-0.588938 0.79522,-0.884549 0.12426,-0.295629 0.26215,-0.468413 0.30637,-0.383955 0.0442,0.08445 0.0575,0.05883 0.0298,-0.05667 -0.0277,-0.115676 0.14274,-0.632664 0.37908,-1.148855 0.50544,-1.103983 0.43751,-1.632539 -0.28818,-2.243176 -0.59161,-0.497814 -2.04924,-1.064887 -3.54105,-1.377585 -1.24401,-0.260766 -1.86514,-0.609766 -1.99948,-1.123415 -0.14435,-0.55224 0.30853,-0.868827 1.24305,-0.868827 0.69727,0 1.02551,0.130019 2.10082,0.831963 2.31889,1.513798 3.05246,2.345195 3.0937,3.506326 0.0319,0.897713 0.65458,-2.39328 0.66196,-3.498497 0.003,-0.532284 -0.18719,-1.731276 -0.42392,-2.6644 -0.47973,-1.891217 -0.54548,-3.495102 -0.19692,-4.803229 0.24886,-0.933868 0.69687,-1.901095 1.08735,-2.347428 0.22203,-0.253811 0.0805,-0.370991 -1.43351,-1.187206 -1.56893,-0.84578 -1.69173,-0.884368 -1.85951,-0.58438 -0.0988,0.17669 -0.38,0.517245 -0.62484,0.756837 -0.28627,0.280104 -0.48045,0.699161 -0.54402,1.174003 -0.11729,0.875887 -0.37961,1.241341 -0.89113,1.241341 -0.20616,0 -0.46386,0.08897 -0.57262,0.197734 -0.2535,0.253518 -1.02732,-0.222739 -1.24668,-0.76726 -0.127,-0.314934 -0.15417,-0.26347 -0.16542,0.311303 -0.0163,0.793552 -0.43548,2.109197 -0.80385,2.517961 -0.37741,0.418783 0.0673,0.525632 1.22273,0.29363 0.69248,-0.139099 1.34675,-0.138008 2.44853,0.0037 1.75986,0.22717 2.24155,0.571849 2.47293,1.769551 0.19064,0.987002 0.1983,2.214522 0.0145,2.214522 -0.0805,0 -0.55276,-0.467289 -1.04954,-1.038448 -1.06474,-1.224142 -2.10864,-1.804378 -3.70509,-2.059423 -3.55282,-0.567565 -7.02728,1.76817 -7.27809,4.892775 -0.0743,0.924625 -0.0264,1.201661 0.3111,1.802146 0.51954,0.924425 1.86319,1.836903 3.35891,2.281093 1.67678,0.497939 4.28455,1.77763 4.66229,2.287865 0.17471,0.235979 0.45683,0.625526 0.62694,0.865682 0.38095,0.537782 1.02087,0.569015 1.80931,0.08825 z m 1.50719,-5.034104 c -0.28896,-0.440976 -2.54604,-2.124526 -3.48815,-2.601769 -0.666,-0.337378 -1.59456,-0.361492 -2.01729,-0.0523 -0.29461,0.215444 -0.28984,0.249202 0.0963,0.680316 0.30887,0.344915 0.77279,0.538673 1.93578,0.808516 1.52301,0.353378 3.54891,1.271339 3.54891,1.608064 0,0.09716 0.0447,0.131835 0.1,0.07699 0.0551,-0.05502 -0.0239,-0.288802 -0.17522,-0.519749 z m 7.79046,-1.073257 c 0.73285,-0.881118 1.23337,-2.155472 1.23521,-3.144944 8.5e-4,-0.56208 -0.22238,-1.609497 -0.58752,-2.754409 -0.32405,-1.016112 -0.62589,-2.002406 -0.67074,-2.19177 -0.0447,-0.189363 -0.0432,0.314189 0.003,1.118983 0.0611,1.047236 -0.0418,2.354583 -0.36213,4.597941 -0.50132,3.512828 -0.5169,3.720969 -0.24242,3.234958 0.10692,-0.189364 0.38776,-0.576697 0.62401,-0.860759 z m -0.32536,-10.001097 c -0.10389,-0.748501 -0.2148,-1.386902 -0.24629,-1.418681 -0.0315,-0.03177 -0.14327,0.103146 -0.24856,0.299716 -0.14635,0.273513 -0.13292,0.470466 0.0574,0.838405 0.13674,0.264507 0.30337,0.772363 0.37018,1.128571 0.21531,1.147584 0.26225,0.555742 0.0673,-0.848011 z m -13.24279,0.296066 c 0,-0.908409 0.18069,-1.74304 0.37742,-1.74304 0.0892,0 0.1148,0.149268 0.057,0.331659 -0.16706,0.52656 0.3444,1.56201 0.77164,1.56201 0.34059,0 0.3464,-0.02343 0.0948,-0.382612 -0.30597,-0.4368 -0.3486,-1.301572 -0.083,-1.683204 0.13455,-0.193358 0.1656,-0.07808 0.12333,0.458917 -0.0311,0.394452 -0.006,0.685487 0.0575,0.646773 0.0626,-0.03869 0.16234,0.122754 0.22164,0.358788 0.0787,0.313208 0.22313,0.429191 0.53481,0.429191 0.51682,0 0.54244,-0.186568 0.0828,-0.602537 -0.45623,-0.412885 -0.42978,-1.463299 0.0367,-1.463299 0.0948,0 0.12727,0.116949 0.0727,0.25973 -0.12346,0.321852 0.16325,1.117493 0.40289,1.117493 0.0969,0 0.17632,-0.256641 0.17632,-0.570322 0,-0.408979 0.14618,-0.710313 0.51646,-1.065124 0.28404,-0.272131 0.51645,-0.598941 0.51645,-0.726219 0,-0.494708 0.54423,-0.381958 2.22328,0.460626 1.36352,0.684234 1.81439,0.838386 2.06303,0.705335 1.12276,-0.600885 2.66538,-0.524018 3.65925,0.182335 0.25132,0.178686 0.5011,0.324759 0.55507,0.324759 0.24353,0 0.62341,-1.087696 0.62341,-1.785004 0,-0.701143 -0.0563,-0.803978 -0.63634,-1.162456 -0.34993,-0.216275 -0.89222,-0.617971 -1.20503,-0.892613 l -0.56875,-0.499381 v 0.443797 c 0,0.320044 0.14562,0.519061 0.52207,0.713763 0.28714,0.148541 0.47956,0.338794 0.42756,0.422908 -0.0521,0.08407 -0.003,0.208973 0.10718,0.277489 0.12584,0.07792 0.15546,0.04995 0.0788,-0.07409 -0.18178,-0.294085 0.16435,-0.241333 0.41739,0.06373 0.50982,0.614287 -0.35059,0.413101 -1.12244,-0.262454 -0.271,-0.237194 -0.78412,-0.321633 -2.41013,-0.396648 -1.46552,-0.06755 -2.36595,-0.201222 -3.09873,-0.459815 -1.17278,-0.413879 -2.43922,-0.483255 -3.03185,-0.166102 -0.22115,0.118355 -0.81133,0.602255 -1.31154,1.075336 -0.7422,0.70194 -0.97256,1.064468 -1.25266,1.971207 -0.36226,1.172914 -0.46155,2.796339 -0.17107,2.796339 0.0946,0 0.17216,-0.300188 0.17216,-0.667093 z m -0.5746,-0.581019 c -0.0477,-0.118395 -0.0868,-0.02162 -0.0868,0.215185 0,0.236705 0.039,0.333547 0.0868,0.215186 0.0476,-0.118395 0.0476,-0.312011 0,-0.430371 z m 2.87198,-0.394761 c -0.0563,-0.146181 -0.13892,-0.228732 -0.18399,-0.183607 -0.0452,0.04522 -0.0309,0.164703 0.0314,0.26565 0.1698,0.274674 0.26898,0.221306 0.15255,-0.08208 z m 9.82912,-0.164704 c -0.006,-0.09479 -0.26879,-0.346457 -0.58494,-0.559499 -0.67131,-0.452399 -2.22971,-0.526777 -2.92865,-0.139826 l -0.42508,0.235342 0.6833,0.172692 c 0.3758,0.09498 0.99315,0.251287 1.37188,0.347294 0.83568,0.211827 1.89745,0.180137 1.88349,-0.05611 z m 1.24677,-2.528492 c -0.0551,-0.137282 -0.0959,-0.0966 -0.10403,0.104052 -0.008,0.181409 0.0332,0.283154 0.0904,0.225935 0.0573,-0.0572 0.0632,-0.205689 0.0146,-0.32995 z m 2.74143,-0.331749 c 1.43669,-1.340462 2.17848,-5.638272 1.45779,-8.4465 -0.73542,-2.865723 -3.39628,-8.849785 -4.62802,-10.408042 -0.85333,-1.079538 -3.03053,-2.881775 -4.02848,-3.334707 -1.36235,-0.618322 -3.08837,-0.328903 -3.99106,0.669223 -0.28297,0.312889 -0.31323,0.546744 -0.2308,1.782873 0.15762,2.36427 2.60277,10.933768 3.42031,11.987264 0.17396,0.224165 0.27306,0.477523 0.22022,0.563016 -0.0528,0.08549 0.0997,0.388137 0.33905,0.672544 0.58745,0.698138 1.99967,3.546679 1.99967,4.03344 0,0.394933 1.11816,1.56912 1.88512,1.979589 0.35768,0.191416 0.37646,0.177416 0.26079,-0.195827 -0.41461,-1.337419 -2.2278,-4.170129 -3.54187,-5.533482 -1.02168,-1.059951 -1.11578,-1.314079 -0.13676,-0.369393 1.51244,1.459435 3.00185,3.678994 3.68669,5.493886 0.21296,0.564321 0.46999,1.053654 0.57122,1.087394 0.10126,0.03377 0.37824,-0.32187 0.61561,-0.790265 0.51672,-1.01969 2.23869,-3.327592 3.09968,-4.154407 1.00598,-0.96602 0.7041,-0.40364 -0.43957,0.818967 -1.05881,1.131854 -2.40708,3.056694 -2.72283,3.88715 -0.15399,0.404913 -0.12137,0.456012 0.3858,0.605769 0.69819,0.206143 1.312,0.08589 1.77749,-0.348492 z m -5.96751,-3.448026 c -0.40879,-1.03713 -1.20219,-2.435909 -1.31669,-2.321403 -0.15254,0.152466 1.36141,3.206888 1.58942,3.206888 0.0418,0 -0.0806,-0.398469 -0.27273,-0.885485 z m 8.19488,-6.018608 c -0.18872,-2.523612 -1.32301,-5.823112 -2.96707,-8.630889 -1.86623,-3.187232 -5.14441,-5.644377 -7.51898,-5.635877 -1.58706,0.0057 -2.80398,0.660373 -3.11315,1.674823 -0.11295,0.370883 -0.0816,0.364761 0.73542,-0.143075 1.71271,-1.064678 3.46744,-0.637839 5.7846,1.407091 1.69863,1.499098 2.40436,2.415912 3.36674,4.373825 1.26789,2.579458 2.93029,6.881627 3.24948,8.409281 l 0.28227,1.35107 0.13927,-0.748541 c 0.0767,-0.411695 0.0953,-1.337662 0.0414,-2.057706 z m -14.12213,0.469963 c -0.24411,-0.55193 -0.44027,-1.3324 -0.45018,-1.791015 l -0.0181,-0.81281 -0.18509,0.57898 c -0.22193,0.694284 0.0403,1.869766 0.58929,2.640616 0.52767,0.741026 0.55337,0.491835 0.0636,-0.615771 z m 2.39081,-2.182276 c -0.92884,-2.754405 -2.10633,-7.419139 -2.17321,-8.60941 -0.0264,-0.468183 -0.12478,-0.823541 -0.21984,-0.792865 -0.0948,0.03057 -0.32095,0.466162 -0.50286,0.967967 -0.27091,0.747382 -0.29539,1.005964 -0.13529,1.429899 0.2153,0.57038 0.0911,0.949327 -0.5375,1.639087 l -0.35804,0.392929 0.46563,0.43176 c 0.2561,0.237467 0.46564,0.50801 0.46564,0.601205 0,0.09319 0.19832,0.244851 0.44074,0.337013 0.45259,0.172076 0.43136,0.512517 -0.0319,0.512517 -0.18158,0 -0.24313,0.142241 -0.20501,0.473416 0.0469,0.40688 0.16816,0.501489 0.86361,0.673145 1.01003,0.249318 1.1706,0.348229 1.1706,0.721099 0,0.661381 0.5397,2.306501 0.97001,2.956719 0.25167,0.380308 0.48251,0.666556 0.51295,0.636104 0.0306,-0.03045 -0.29597,-1.097215 -0.72537,-2.370585 z m -5.44002,-2.659518 c 0,-0.272632 -0.0287,-0.254712 -0.13782,0.08607 -0.0759,0.23671 -0.13782,0.585317 -0.13782,0.774682 0,0.272633 0.0287,0.254712 0.13782,-0.08607 0.0759,-0.236707 0.13782,-0.585315 0.13782,-0.774682 z m -20.0034,-17.082456 c -0.17506,-0.174999 -0.31939,0.08848 -0.17578,0.320784 0.10863,0.175492 0.14909,0.175636 0.20734,7.19e-4 0.0399,-0.119617 0.0257,-0.264275 -0.0315,-0.32148 z m -0.44829,0.04725 c 0,-0.273621 -0.23541,-0.326454 -2.75443,-0.618184 -2.12619,-0.246233 -5.04273,-0.893413 -7.36008,-1.633193 -2.16623,-0.691531 -2.28042,-0.704483 -2.28042,-0.258679 0,0.450516 0.40427,0.642855 1.82571,0.868594 0.65282,0.10367 1.9229,0.371516 2.82239,0.5952 1.75342,0.436031 5.83825,1.133279 7.44554,1.270894 0.16581,0.01416 0.30129,-0.0869 0.30129,-0.224632 z m -1.89086,50.251332 c -8.5e-4,-0.09969 0.42605,-0.86432 0.9502,-1.699184 0.52417,-0.834831 1.04361,-1.856516 1.1543,-2.270379 0.33111,-1.237963 -0.0283,-2.725048 -1.31092,-5.424349 -1.63499,-3.440896 -1.59511,-3.210656 -1.22108,-7.049891 0.26668,-2.737195 0.28629,-3.507651 0.1186,-4.657847 -0.15289,-1.048617 -0.28965,-1.450029 -0.57216,-1.678786 -0.26495,-0.214559 -0.39582,-0.556283 -0.45705,-1.19349 -0.1148,-1.195498 0.19845,-1.166493 0.58318,0.05398 0.16416,0.520759 0.34828,0.946832 0.40917,0.946832 0.0608,0 0.29832,-0.199711 0.52763,-0.443807 0.38793,-0.412933 2.22395,-1.622012 2.46307,-1.622012 0.25733,0 0.0743,0.33135 -0.2377,0.43038 -0.52068,0.165248 -0.41438,0.677486 0.26422,1.273304 0.7013,0.615756 1.08565,0.664939 1.64659,0.210702 l 0.39962,-0.323586 -0.48292,-0.633143 c -1.55321,-2.036359 -2.40465,-2.478065 -4.10124,-2.127639 -0.89611,0.185087 -1.01594,0.173473 -1.35308,-0.131201 -0.20344,-0.183848 -0.54824,-0.682875 -0.76624,-1.108948 -0.21797,-0.426075 -0.61267,-0.903177 -0.87713,-1.060223 -0.4619,-0.274294 -0.4881,-0.270905 -0.66512,0.08607 -0.14401,0.290258 -0.36663,0.383273 -1.01704,0.42487 -1.26039,0.0806 -1.90818,-0.432219 -2.90824,-2.302249 -0.44707,-0.835951 -0.81282,-1.624908 -0.81282,-1.753246 0,-0.128336 0.15198,-0.51982 0.33772,-0.869972 0.18578,-0.350149 0.38092,-0.849673 0.43368,-1.110051 0.0528,-0.26038 0.19128,-0.471282 0.30781,-0.468673 0.11664,0.0026 0.71459,0.936938 1.32892,2.076289 0.61436,1.139355 1.25348,2.195046 1.42024,2.345987 0.45934,0.415686 0.36676,0.131672 -0.29347,-0.900454 -0.76284,-1.192532 -1.38617,-2.440298 -1.54253,-3.087898 -0.0673,-0.279487 -0.18356,-1.446492 -0.25794,-2.593341 -0.15363,-2.369698 -0.4108,-3.009874 -1.20876,-3.009874 -0.39928,0 -0.56126,0.169823 -1.10823,1.162023 -0.44928,0.815013 -0.80496,1.239137 -1.19103,1.42025 -0.36335,0.170443 -0.68929,0.538165 -0.95887,1.081745 -0.39973,0.806014 -0.40256,0.844433 -0.13348,1.807592 0.23505,0.841437 0.62626,4.639838 0.62758,6.093285 1.6e-4,0.253618 0.11545,0.576119 0.25596,0.716671 0.22597,0.225969 0.38042,0.217594 1.33418,-0.07234 1.46976,-0.446793 2.63887,-0.591721 2.79076,-0.345952 0.14509,0.234894 -1.05496,0.796852 -2.05643,0.962904 -1.76069,0.291937 -2.15964,0.653594 -2.14433,1.943914 0.0106,0.864922 0.34579,1.742007 0.97469,2.5477 0.57574,0.737616 0.91143,1.587881 0.91143,2.308659 0,0.256426 0.32624,1.697387 0.72501,3.202141 0.66565,2.511878 0.72631,2.919149 0.74074,4.973871 0.0163,2.192549 0.13148,3.01265 0.42629,3.01265 0.0811,0 0.36634,-0.182153 0.63398,-0.404802 1.07629,-0.895335 1.73439,-1.017164 2.28749,-0.423489 0.44541,0.478075 0.45296,1.340869 0.0163,1.895612 -0.19996,0.254191 -0.93419,0.657014 -1.826,1.001804 l -1.49158,0.576643 0.0911,0.613833 c 0.0502,0.337596 0.13455,0.884966 0.18748,1.216351 0.0963,0.601702 0.0959,0.601575 -0.14563,-0.08607 -0.30718,-0.874251 -0.33049,-1.718941 -0.0532,-1.926517 0.11835,-0.08862 0.78214,-0.378164 1.47508,-0.64345 0.6929,-0.265291 1.4095,-0.642962 1.59236,-0.839281 0.43545,-0.467344 0.42327,-1.234186 -0.0267,-1.68413 -0.45692,-0.456921 -0.93733,-0.347912 -1.98232,0.449727 -0.63357,0.483631 -0.88795,0.579984 -1.32693,0.502646 -0.98924,-0.174328 -1.66821,-1.112918 -1.66821,-2.306118 0,-0.497486 -0.0721,-0.697165 -0.25219,-0.697165 -0.42742,0 -0.6506,0.67977 -0.57344,1.746508 0.0879,1.216369 0.74158,2.263732 1.73191,2.77531 0.61528,0.317843 0.67068,0.31995 1.09571,0.0414 0.37959,-0.248729 0.43312,-0.382996 0.35202,-0.88279 -0.0564,-0.348292 -0.0294,-0.548514 0.0663,-0.489369 0.0891,0.05502 0.16198,0.324902 0.16198,0.599668 0,0.517262 -0.5626,1.201629 -0.98785,1.201629 -0.69587,0 -2.11253,-1.239419 -2.45527,-2.148101 -0.47901,-1.269921 -0.0714,-3.120951 0.65653,-2.982161 0.21318,0.04068 0.31438,0.293342 0.38058,0.950376 0.0684,0.679222 0.21111,1.021177 0.59171,1.418443 0.55947,0.583978 1.25933,0.735662 1.02511,0.222197 -0.0756,-0.165612 -0.14526,-1.308347 -0.15506,-2.539243 -0.0164,-2.045753 -0.0798,-2.475161 -0.74176,-4.99982 -0.3983,-1.519028 -0.72756,-2.990916 -0.73169,-3.270875 -0.0106,-0.749555 -0.37991,-1.658404 -0.98162,-2.419254 -0.59328,-0.750189 -0.9021,-1.694155 -0.90355,-2.761826 -8.5e-4,-1.093974 0.36212,-1.400802 2.23705,-1.887781 1.77693,-0.461533 2.53452,-0.8812 1.20502,-0.667539 -0.42607,0.06848 -1.25087,0.270757 -1.83284,0.449519 -1.09464,0.336229 -1.51419,0.304149 -1.68023,-0.128456 -0.0532,-0.138536 -0.17831,-1.430131 -0.27803,-2.870227 -0.2479,-3.578127 -0.52555,-4.551472 -0.39737,-1.393103 0.10834,2.671522 -0.0643,3.681066 -0.62982,3.681066 -0.17361,0 -0.50509,-0.225125 -0.73661,-0.500278 -0.37952,-0.451041 -0.43013,-0.700947 -0.5142,-2.539236 -0.10153,-2.221305 -0.1,-2.22661 1.1058,-3.514942 0.22806,-0.243691 0.51039,-0.762533 0.62738,-1.15298 0.22289,-0.743985 1.09215,-1.760899 1.50516,-1.760899 0.13276,0 0.40812,-0.329241 0.61177,-0.731644 0.70488,-1.392769 1.00142,-1.7025 1.57491,-1.644968 0.92119,0.09241 1.20797,0.71729 1.34659,2.934513 0.19791,3.165272 0.15888,3.046893 2.11554,6.414235 0.50999,0.877687 1.03384,1.535695 1.44425,1.814157 0.35423,0.240318 0.84351,0.80389 1.08729,1.252382 0.66487,1.223083 0.6835,1.233104 1.8367,0.988375 1.48026,-0.314128 2.17519,-0.0748 3.34528,1.152104 1.19419,1.252146 1.41844,1.654071 1.17583,2.107389 -0.43512,0.812997 -1.93031,0.491755 -2.54361,-0.546489 -0.15745,-0.266412 -0.3591,-0.484386 -0.44831,-0.484386 -0.0891,0 -0.58234,0.324153 -1.09587,0.720344 -0.80186,0.618632 -0.91984,0.782711 -0.83553,1.162024 0.29209,1.314024 0.30009,3.409841 0.0229,6.019649 -0.16363,1.541855 -0.24676,3.074591 -0.18458,3.406086 0.1077,0.573627 1.62686,4.059668 2.08667,4.788067 0.42722,0.676736 0.79776,2.552919 0.7068,3.578799 -0.0698,0.785038 -0.24698,1.251891 -0.83572,2.199577 -0.41106,0.661646 -0.9204,1.491427 -1.13187,1.843949 -0.21149,0.352522 -0.38578,0.559372 -0.38733,0.459681 z m -0.93465,-23.756458 c -0.17359,-0.473968 -0.25264,-0.565999 -0.2611,-0.303808 -0.0145,0.461207 0.34686,1.415016 0.44166,1.164566 0.0376,-0.09946 -0.0436,-0.486792 -0.18051,-0.860758 z m -10.56495,-5.028227 c 0.08,-0.308234 0.0849,-1.756434 0.0106,-3.218226 l -0.13438,-2.657804 -0.74345,0.88307 c -0.72569,0.86197 -0.74038,0.903906 -0.61526,1.7552 0.0704,0.479676 0.11256,1.298209 0.0935,1.818967 -0.0609,1.665644 1.03459,2.784897 1.38859,1.418793 z m 7.70031,0.399802 c 0.15926,-0.191983 0.15599,-0.336224 -0.0145,-0.645567 -0.1211,-0.219088 -0.20075,-0.514547 -0.17686,-0.656572 0.0354,-0.211449 0.0146,-0.21555 -0.11571,-0.02265 -0.20004,0.296291 -1.20932,-1.146093 -2.24756,-3.212049 -0.67501,-1.343173 -1.05075,-1.657837 -1.05075,-0.879933 0,0.18755 -0.16381,0.662129 -0.36408,1.054621 l -0.36405,0.713621 0.49316,0.953416 c 0.88691,1.714602 1.27181,2.261163 1.83345,2.603615 0.64903,0.395732 1.71473,0.444296 2.00755,0.09148 z m -2.0976,26.799483 c -0.23661,-0.545608 -0.4801,-1.262185 -0.54105,-1.592408 -0.0611,-0.330205 0.11098,-0.01943 0.3819,0.690736 0.27099,0.710111 0.55136,1.426706 0.62303,1.592389 0.0714,0.165795 0.0933,0.301279 0.0482,0.301279 -0.0453,0 -0.27558,-0.446405 -0.5122,-0.991996 z"
         id="path39" />
    </g>
  </g>
</svg>
